<svg version="1.1" viewBox="0 0 96 96" xmlns="http://www.w3.org/2000/svg" xmlns:xlink="http://www.w3.org/1999/xlink" id="Icons_EarthGlobeAsia" overflow="hidden"><path d=" M 67.89 42.39 C 70.6 40.56 73.71 38.51 72.89 35.39 C 72.83 35.15 71.95 35.15 71.89 35.39 C 71.48 37.14 71.06 38.72 66.89 41.39 C 66.65 41.54 67.53 42.63 67.89 42.39 Z"/><path d=" M 55.9 60.94 C 56.14 60.74 58.29 59.94 58.5 59.52 C 58.8651 58.7967 59.3758 58.1566 60 57.64 C 60.167 57.5447 60.358 57.4995 60.55 57.51 L 60.89 57.84 C 61.2101 58.0442 61.5174 58.268 61.81 58.51 C 61.91 58.64 61.73 58.76 61.73 58.76 L 61.73 58.76 L 61.31 58.85 C 61.3433 58.9583 61.37 59.0685 61.39 59.18 C 61.39 59.4 60.47 59.85 60.47 59.85 L 60.89 60.35 C 60.89 60.35 61.97 60.51 61.56 61.19 L 60.56 62.28 L 60.06 63.37 C 60.06 63.37 60.06 64.13 59.81 64.29 C 59.56 64.45 59.47 64.21 59.06 64.38 C 58.103 64.4951 57.1324 64.3643 56.24 64 C 56.1453 63.7308 56.1144 63.4432 56.15 63.16 C 56.15 63.16 55.95 63.16 55.69 62.78 C 55.3796 62.181 55.4626 61.4537 55.9 60.94 Z"/><path d=" M 52.05 65.47 C 51.1253 64.6897 50.281 63.8187 49.53 62.87 L 48.95 62.37 L 47.1 60.1 L 46.43 59.43 C 46.43 59.43 46.16 59.18 46.35 59.1 C 46.8597 59.0431 47.3757 59.1012 47.86 59.27 C 48.15 59.41 49.68 61.2 49.95 61.19 C 50.22 61.18 50.4 61.07 50.62 61.19 C 50.9517 61.4706 51.2594 61.7783 51.54 62.11 C 51.7199 62.1756 51.8912 62.263 52.05 62.37 C 52.201 62.5999 52.3125 62.8534 52.38 63.12 C 52.5648 63.431 52.8266 63.6893 53.14 63.87 C 53.74 64.29 53.47 64.29 53.47 64.29 L 53.3 65.05 C 53.3 65.05 53.48 65.8 53.3 65.97 C 53.12 66.14 52.94 66.06 52.05 65.47 Z"/><path d=" M 47.7 9 C 26.7132 9 9.7 26.0132 9.7 47 C 9.7 67.9868 26.7132 85 47.7 85 C 68.6868 85 85.7 67.9868 85.7 47 C 85.7 26.0132 68.6868 9 47.7 9 Z M 65.93 18.32 C 65.79 18.44 65.78 18.69 65.78 19.21 C 65.78 20.21 63.78 19.21 61.78 19.21 C 59.78 19.21 56.78 20.21 55.78 20.21 C 54.78 20.21 53.78 21.21 52.78 21.21 C 51.78 21.21 52.62 19.76 51.78 19.21 C 46.62 15.8 40.78 21.21 39.78 20.21 C 38.78 19.21 34.78 21.21 33.05 21.33 C 31.32 21.45 29.78 21.21 30.78 20.21 C 31.78 19.21 30.78 19.21 29.78 18.21 L 29.72 18.16 C 40.81 11.2227 54.9018 11.2849 65.93 18.32 Z M 69.75 21.15 C 84.0228 33.2839 85.7567 54.6908 73.6227 68.9635 C 73.4866 69.1236 73.3491 69.2825 73.21 69.44 C 73.04 69.53 73.03 69.44 73.01 69.31 C 72.99 69.18 73.01 68.89 73.17 68.89 C 73.33 68.89 73.53 68.79 73.55 68.68 C 73.57 68.57 73.61 67.68 73.64 67.63 C 73.67 67.58 73.49 67.26 73.47 67.21 C 73.3188 66.7806 73.205 66.339 73.13 65.89 C 73.13 65.72 73.13 65.58 73.13 65.59 C 72.8944 65.8143 72.6953 66.0741 72.54 66.36 C 72.37 66.81 72.3 67.28 72.15 67.84 C 72.0606 68.5682 71.6349 69.2123 71 69.58 C 70.41 69.85 69.31 67.49 69.31 67.42 C 69.3112 67.3545 69.3403 67.2927 69.39 67.25 C 69.5696 67.1466 69.7432 67.0331 69.91 66.91 C 70.0795 66.7965 70.2341 66.6621 70.37 66.51 C 70.37 66.34 70.24 66.09 70.15 66.16 C 70.0517 66.231 69.9306 66.2631 69.81 66.25 C 69.7059 66.2093 69.6181 66.1355 69.56 66.04 C 69.2392 65.8903 68.9042 65.773 68.56 65.69 C 68.41 65.69 68.31 65.59 68.2 65.69 C 68.09 65.79 67.94 66.32 67.94 66.32 C 67.94 66.32 67.33 67.02 67.33 67.02 C 67.33 67.02 65.33 68.6 64.87 68.53 C 64.41 68.46 64 69 64 69 C 63.71 69.06 63 69.92 62.9 70 C 62.8 70.08 59.65 72.17 58.99 72.5 C 58.68 72.65 58.08 72.58 57.99 72.68 C 57.4119 73.3503 56.9946 74.1438 56.77 75 C 56.77 75.3 56.14 75.44 56.08 75.86 C 55.98 76.53 56.5 77.25 56.5 77.57 C 56.5221 77.7794 56.5221 77.9906 56.5 78.2 C 56.5 78.2 56.18 78.38 56.16 78.45 C 56.1274 78.502 56.1274 78.568 56.16 78.62 C 56.3819 78.7243 56.6128 78.808 56.85 78.87 C 57.1 78.87 57.2 78.38 57.17 77.82 L 57.75 77.58 C 58.2248 77.2941 58.797 77.218 59.33 77.37 C 60.99 77.65 61.22 77.78 61.68 77.62 C 62.0081 77.5413 62.3429 77.4944 62.68 77.48 C 45.8238 85.7546 25.4512 78.7979 17.1766 61.9417 C 15.3813 58.2846 14.2579 54.3345 13.86 50.28 C 16.12 50.98 20.44 50.65 24.48 47.2 C 25.79 46.08 24.37 45.47 23.33 44.67 C 22.29 43.87 28.43 45.07 29.47 45.67 C 30.51 46.27 30.02 47.34 30.1 47.67 C 30.7403 49.633 31.512 51.5507 32.41 53.41 C 33.85 56.41 34.32 57.31 34.88 56.99 C 35.6333 56.2397 35.9632 55.1635 35.76 54.12 C 35.6 52.85 35.6 51.65 36.29 52.03 C 36.98 52.41 39.58 50.22 40.82 49.26 C 42.06 48.3 42.13 48.55 42.69 47.51 C 43.25 46.47 43.01 47.67 44.25 49.09 C 45.49 50.51 45.88 50.62 45.68 51.02 C 45.48 51.42 45.24 52.69 46.27 53.09 C 46.4788 53.1831 46.724 53.1259 46.87 52.95 C 46.72 54.61 47.07 57.21 49.62 60.18 C 50.71 61.45 52.17 62.25 52.62 61.91 C 53.07 61.57 49.05 55.91 49.69 54.28 C 50.33 52.65 50.96 54.84 52.29 55.63 C 53.62 56.42 53.29 56.83 55.03 55.63 C 56.77 54.43 55.27 52.76 53.91 51.41 C 52.55 50.06 53.67 49.57 54.72 48.75 C 55.77 47.93 55.35 49.75 56.06 49.81 C 56.77 49.87 57.58 48.06 59.33 47.66 C 61.08 47.26 61.56 45.27 62.26 43.89 C 62.96 42.51 61.4 41.69 60.26 40.25 C 59.12 38.81 62.53 37 63 38 C 63.47 39 63.23 40 64.26 40.73 C 65.29 41.46 65.69 39.44 65.26 38.73 C 64.83 38.02 64.26 38.73 64.26 36.73 C 64.26 34.73 67.26 32.73 68.26 32.73 C 69.26 32.73 68.26 29.73 67.26 28.52 C 66.26 27.31 64.26 27.73 63.75 27.97 C 63.24 28.21 64.31 26.73 64.87 25.26 C 65.43 23.79 67.31 24.73 67.31 24.73 L 68.31 23.73 C 68.31 23.73 68.78 25.35 69.25 25.42 C 69.72 25.49 69.81 24.23 69.81 23.23 L 69.81 21.48 Z"/><path d=" M 68.72 58.87 L 71.22 62.2 C 71.5087 62.59 72.0357 62.7165 72.47 62.5 L 73.72 61.87 L 75.4 62.43 C 75.923 62.6075 76.4908 62.3274 76.6684 61.8045 C 76.7092 61.6841 76.7267 61.557 76.72 61.43 L 76.72 61.43 C 76.7199 61.0769 76.5337 60.7501 76.23 60.57 L 72 58 C 71.8414 57.9098 71.6624 57.8616 71.48 57.86 C 71.48 57.86 68.94 57.61 68.76 57.86 C 68.58 58.11 68.72 58.87 68.72 58.87 Z"/></svg>